<?xml version="1.0" encoding="utf-8"?>
<svg xmlns="http://www.w3.org/2000/svg" fill="none" viewBox="0 0 189.637 43.403">
    <g fill-rule="evenodd">
        <path fill="#7f8e76" d="M12.6 30.351c-2.399 0-4.35-.4-5.75-1.15v13.301h-2.7c-1.9 0-4.15-1.25-4.15-4.9V9.95c0-.21.129-.397.328-.463C2.382 8.807 6.58 8 8.9 8h3.851c6.65 0 11.4 3.801 11.4 10.65 0 7.25-5 11.701-11.551 11.701M11.901 13.8h-2.2c-.851 0-2.051.3-2.851.449v9.701c1.2.35 3.101.6 4.851.6 3.5 0 5.4-2 5.4-5.3 0-3.9-1.601-5.45-5.2-5.45M43.699 22.061c0 .354-.357.596-.693.487-.92-.3-2.08-.548-3.457-.548-3.001 0-4.65 1.65-4.65 5.751v15.5h-1.851c-3 0-4.9-1.5-4.9-4.3V26.55c0-5.4 2.851-10.55 9.951-10.55 4.149 0 5.6 2.351 5.6 4.399zM88.083 11.85c.9-1.049 2.101-1.85 3.15-1.85h1.05a.5.5 0 0 1 .5.5v5.601h8.851a.5.5 0 0 1 .5.5v2.25c0 1.399-1.25 3.2-4 3.2h-5.351v10.551c0 3.5 1.551 4.85 4.251 4.85 2.149 0 4.05-.299 5.1-.949v2.4c0 2.75-2 4.5-5.9 4.5-6.8 0-10.101-3.701-10.101-10.001v-16.2c0-2.651.5-3.651 1.95-5.352M110.033 13.85c-2.15 0-3.9-1.8-3.9-3.95s1.75-3.9 3.9-3.9 3.951 1.75 3.951 3.9-1.801 3.95-3.951 3.95m4.75 29.151c-5.199 0-8.049-2.949-8.049-8.4v-18.25h1.898c3.002 0 4.801 1.6 4.801 5v12.6c0 2.701 1.15 3.551 4.102 3.551h.75a.5.5 0 0 1 .5.5v.95c0 2.9-1.151 4.049-4.002 4.049M134.681 42.601c-6.65 0-11.9-4.399-11.9-12.25V15h1.25c3.85 0 5.551 1.649 5.551 4.8v9.9c0 4.951 2.4 6.951 5.449 6.951 2.75 0 4.701-1.9 4.701-6.5V15.5a.5.5 0 0 1 .5-.5h.699c3.9 0 5.551 1.649 5.551 4.8v10.102c0 8.4-3.951 12.699-11.801 12.699M187.989 42.6c-3.65 0-5.102-1.699-5.102-4.9V27.3c0-4.449-2-6.35-4.949-6.35-2.701 0-4.551 1.9-4.551 5.6v15.551a.5.5 0 0 1-.5.5h-1.301c-2.949 0-4.9-1.699-4.9-4.9v-10.4c0-4.449-2.049-6.35-5-6.35-2.6 0-4.551 2.05-4.551 5.75v15.9h-1.799c-2.75 0-4.852-1.8-4.852-4.9v-10.45c0-7.351 3.852-12.251 12.002-12.251 3.5 0 6.25 1.601 8.199 4.201 1.551-2.5 4.502-4.201 7.752-4.201 6.199 0 11.199 3.75 11.199 11.4v16.201zM80.336 11.543a3 3 0 0 0-2.995-2.827h-4.125A.016.016 0 0 1 73.2 8.7c0-4.797-3.713-8.7-8.28-8.7s-8.28 3.903-8.28 8.7a.016.016 0 0 1-.016.016h-4.13a3 3 0 0 0-2.996 2.827l-1.61 27.855a3 3 0 0 0 2.994 3.173h28.071a3 3 0 0 0 2.995-3.173zM58.613 8.716a.016.016 0 0 1-.016-.016c0-3.717 2.836-6.742 6.323-6.742 3.486 0 6.322 3.025 6.322 6.742a.016.016 0 0 1-.016.016z"/>
        <path fill="#fff" d="m64.704 32.309-4.107 1.578c1.686 2.994 5.35 3.89 9.038 2.474 2.275-.873 4.93-2.34 6.432-4.445.253-.355.843-.32 1 .088l.343.89c1.236 3.22-.008 6.537-6.917 9.19-6.255 2.4-14.271-.197-17.228-7.9-3.227-8.402-.117-15.648 7.07-18.41 5.229-2.006 11.519-.137 13.832 5.885 1.774 4.62-1.154 7.46-9.463 10.65m-2.92-11.091c-3.034 1.165-4.185 4.445-3.214 7.394l.276.857 2.8-1.074c5.929-2.277 7.032-3.45 6.352-5.225-.97-2.52-3.32-3.063-6.214-1.952"/>
    </g>
</svg>